<svg width="134" height="134" viewBox="0 0 134 134" fill="none" xmlns="http://www.w3.org/2000/svg">
<path d="M66.7874 133.575C103.673 133.575 133.575 103.673 133.575 66.7874C133.575 29.9018 103.673 0 66.7874 0C29.9017 0 0 29.9018 0 66.7874C0 103.673 29.9017 133.575 66.7874 133.575Z" fill="#46C0FA"/>
<path d="M27.9074 71.5322C27.9074 35.7161 56.2479 6.39815 91.6806 4.81593C83.9836 1.71294 75.5823 0.000488281 66.7874 0.000488281C29.9608 0.000488281 0 29.9613 0 66.7879C0 103.615 29.9608 133.575 66.7874 133.575C67.7975 133.575 68.8018 133.549 69.8012 133.504C45.2684 123.613 27.9074 99.5634 27.9074 71.5322Z" fill="#46C0FA"/>
<path d="M66.7161 116.432C94.1736 116.432 116.432 94.1736 116.432 66.7161C116.432 39.2587 94.1736 17 66.7161 17C39.2587 17 17 39.2587 17 66.7161C17 94.1736 39.2587 116.432 66.7161 116.432Z" fill="#3E80DE"/>
<path d="M53.7979 18.7721C32.5179 24.4021 16.8308 43.7857 16.8308 66.8353C16.8308 84.0495 25.5808 99.2191 38.8746 108.143C31.9497 97.6218 27.9078 85.0425 27.9078 71.5322C27.9073 50.101 38.0567 30.9997 53.7979 18.7721Z" fill="#3E80DE"/>
<path d="M39.8585 78.1625L39.7902 54.0102L46.3116 53.9918L46.365 72.853L63.9958 72.8031L64.0108 78.0941L39.8585 78.1625ZM83.5224 78.0389L75.9287 78.0604L63.6436 53.9427L70.9209 53.9221L79.7614 72.073L88.4814 53.8725L95.7587 53.8519L83.5224 78.0389Z" fill="#46C0FA"/>
</svg>
