<svg width="670" height="145" viewBox="0 0 670 145" fill="none" xmlns="http://www.w3.org/2000/svg">
<path d="M107.338 140.022C144.224 140.022 174.126 110.121 174.126 73.2351C174.126 36.3494 144.224 6.44763 107.338 6.44763C70.4528 6.44763 40.551 36.3494 40.551 73.2351C40.551 110.121 70.4528 140.022 107.338 140.022Z" fill="#46C0FA"/>
<path d="M68.4584 77.9798C68.4584 42.1637 96.7989 12.8458 132.232 11.2636C124.535 8.16057 116.133 6.44812 107.338 6.44812C70.5118 6.44812 40.551 36.4089 40.551 73.2355C40.551 110.062 70.5118 140.022 107.338 140.022C108.349 140.022 109.353 139.996 110.352 139.951C85.8194 130.061 68.4584 106.011 68.4584 77.9798Z" fill="#46C0FA"/>
<path d="M107.098 122.999C134.555 122.999 156.814 100.74 156.814 73.2829C156.814 45.8254 134.555 23.5668 107.098 23.5668C79.6405 23.5668 57.3818 45.8254 57.3818 73.2829C57.3818 100.74 79.6405 122.999 107.098 122.999Z" fill="#3E80DE"/>
<path d="M94.349 25.2197C73.0689 30.8497 57.3818 50.2333 57.3818 73.2829C57.3818 90.4971 66.1319 105.667 79.4256 114.59C72.5007 104.069 68.4589 91.4901 68.4589 77.9798C68.4584 56.5486 78.6077 37.4473 94.349 25.2197Z" fill="#3E80DE"/>
<path d="M231.046 120.551L240.787 140.767H75.2434L103.625 105.123C104.264 104.319 104.756 103.402 105.073 102.416L121.408 51.4917C122.008 49.6188 123.139 47.9556 124.666 46.7119L180.327 1.35225C182.302 -0.252412 185.067 -0.44751 187.248 0.869383L197.344 6.97098C199.148 8.05864 200.251 10.0145 200.251 12.1215V38.1813C200.251 40.4152 201.255 42.5271 202.982 43.9415L224.096 61.1879C227.515 63.9778 229.549 68.1138 229.676 72.523L231.046 120.551Z" fill="#D6D1D6"/>
<path d="M98.7403 99.5602L78.2666 86.7475L81.7262 81.2194L97.7148 91.2252L107.068 76.2797L111.553 79.0865L98.7403 99.5602ZM121.904 62.5466L117.875 68.9838L90.9207 66.5272L94.7813 60.3582L114.851 62.55L104.097 45.4724L107.958 39.3034L121.904 62.5466Z" fill="#46C0FA"/>
<path d="M232.74 124.065H137.145C127.535 124.065 120.95 114.378 124.486 105.442L141.732 61.8532C142.332 59.9803 143.464 58.3171 144.99 57.0734L200.25 12.0522C200.223 9.97495 199.126 8.04497 197.344 6.97049L187.248 0.868879C185.067 -0.448014 182.302 -0.252916 180.327 1.35174L124.666 46.7114C123.139 47.9551 122.008 49.6183 121.408 51.4912L105.073 102.416C104.756 103.401 104.264 104.318 103.625 105.123L75.2434 140.767H103.512H103.819H240.787L232.74 124.065Z" fill="#C7C0C7"/>
<path d="M245.342 144.425H3.65804C1.63782 144.425 0 142.787 0 140.767C0 138.747 1.63782 137.109 3.65804 137.109H245.342C247.363 137.109 249 138.747 249 140.767C249 142.787 247.362 144.425 245.342 144.425Z" fill="#D6D1D6"/>
<path d="M134.565 103.042C132.544 103.042 130.907 101.404 130.907 99.3837V78.4177C130.907 75.8654 131.901 73.4662 133.705 71.6611L144.928 60.4387C146.357 59.0097 148.673 59.0102 150.101 60.4387C151.529 61.8673 151.53 64.1836 150.101 65.6117L138.879 76.8336C138.456 77.2564 138.223 77.8193 138.223 78.4173V99.3832C138.223 101.404 136.586 103.042 134.565 103.042V103.042Z" fill="#B3ADB5"/>
<path d="M160.713 52.9871C159.777 52.9871 158.841 52.6301 158.126 51.9155C156.698 50.487 156.698 48.1707 158.126 46.7426L161.364 43.505C162.793 42.0764 165.109 42.0764 166.537 43.505C167.966 44.9336 167.966 47.2498 166.537 48.6779L163.3 51.9155C162.586 52.6301 161.649 52.9871 160.713 52.9871Z" fill="#C7C0C7"/>
<path d="M206.248 109.478C204.228 109.478 202.59 107.84 202.59 105.82V82.5264L197.664 77.6008C196.236 76.1722 196.236 73.8559 197.664 72.4278C199.093 70.9993 201.409 70.9993 202.838 72.4278L208.835 78.4251C209.521 79.1108 209.906 80.0414 209.906 81.0115V105.82C209.906 107.84 208.269 109.478 206.248 109.478Z" fill="#C7C0C7"/>
<path d="M114.559 136V87.6953H127.602V125.418H162.863V136H114.559ZM226.848 133.609C222.887 134.922 218.926 135.859 214.965 136.422C211.027 137.008 206.996 137.301 202.871 137.301C197.598 137.301 192.898 136.738 188.773 135.613C184.672 134.465 181.215 132.812 178.402 130.656C175.59 128.5 173.445 125.863 171.969 122.746C170.492 119.629 169.754 116.102 169.754 112.164C169.754 108.508 170.492 105.121 171.969 102.004C173.469 98.8633 175.578 96.1445 178.297 93.8477C181.039 91.5273 184.344 89.7227 188.211 88.4336C192.078 87.1211 196.391 86.4648 201.148 86.4648C205.531 86.4648 209.539 87.0625 213.172 88.2578C216.828 89.4297 219.957 91.1758 222.559 93.4961C225.184 95.8164 227.211 98.6758 228.641 102.074C230.094 105.473 230.82 109.387 230.82 113.816V117.051H183.219C183.641 118.574 184.332 119.969 185.293 121.234C186.277 122.5 187.602 123.578 189.266 124.469C190.93 125.359 192.969 126.051 195.383 126.543C197.82 127.035 200.727 127.281 204.102 127.281C206.492 127.281 208.836 127.141 211.133 126.859C213.43 126.555 215.574 126.168 217.566 125.699C219.559 125.207 221.352 124.668 222.945 124.082C224.562 123.496 225.863 122.91 226.848 122.324V133.609ZM217.848 107.488C217.73 106.293 217.367 105.062 216.758 103.797C216.172 102.508 215.234 101.348 213.945 100.316C212.656 99.2852 210.969 98.4414 208.883 97.7852C206.797 97.1055 204.195 96.7656 201.078 96.7656C198.148 96.7656 195.617 97.1289 193.484 97.8555C191.352 98.582 189.559 99.4844 188.105 100.562C186.676 101.641 185.562 102.801 184.766 104.043C183.969 105.285 183.453 106.434 183.219 107.488H217.848ZM269.035 98.207V136H255.992V98.207H235.496V87.6953H289.566V98.207H269.035ZM301.73 105.414H292.449L295.684 87.6953H307.215L301.73 105.414ZM361.074 101.301C360.16 100.855 358.953 100.352 357.453 99.7891C355.953 99.2266 354.254 98.6992 352.355 98.207C350.457 97.6914 348.395 97.2695 346.168 96.9414C343.941 96.5898 341.656 96.4141 339.312 96.4141C337.438 96.4141 335.832 96.4727 334.496 96.5898C333.184 96.707 332.07 96.8594 331.156 97.0469C330.266 97.2344 329.551 97.457 329.012 97.7148C328.496 97.9492 328.098 98.1953 327.816 98.4531C327.535 98.7109 327.348 98.9688 327.254 99.2266C327.184 99.4844 327.148 99.7188 327.148 99.9297C327.148 100.633 327.5 101.254 328.203 101.793C328.906 102.309 329.867 102.777 331.086 103.199C332.305 103.598 333.723 103.984 335.34 104.359C336.957 104.711 338.668 105.086 340.473 105.484C342.301 105.859 344.176 106.281 346.098 106.75C348.043 107.195 349.918 107.723 351.723 108.332C353.551 108.941 355.273 109.656 356.891 110.477C358.508 111.273 359.926 112.211 361.145 113.289C362.363 114.367 363.324 115.609 364.027 117.016C364.73 118.422 365.082 120.027 365.082 121.832C365.082 124.152 364.672 126.145 363.852 127.809C363.031 129.473 361.93 130.879 360.547 132.027C359.188 133.176 357.605 134.102 355.801 134.805C353.996 135.484 352.098 136.012 350.105 136.387C348.137 136.762 346.133 137.008 344.094 137.125C342.078 137.242 340.156 137.301 338.328 137.301C333.547 137.301 329.117 136.902 325.039 136.105C320.984 135.332 317.398 134.359 314.281 133.188V121.656C317.492 123.438 321.148 124.832 325.25 125.84C329.375 126.848 333.781 127.352 338.469 127.352C341.234 127.352 343.484 127.211 345.219 126.93C346.977 126.625 348.348 126.25 349.332 125.805C350.316 125.336 350.984 124.832 351.336 124.293C351.688 123.754 351.863 123.238 351.863 122.746C351.863 121.973 351.512 121.305 350.809 120.742C350.105 120.156 349.145 119.652 347.926 119.23C346.707 118.785 345.289 118.387 343.672 118.035C342.055 117.66 340.332 117.297 338.504 116.945C336.699 116.57 334.836 116.172 332.914 115.75C330.992 115.328 329.117 114.836 327.289 114.273C325.484 113.688 323.773 113.02 322.156 112.27C320.539 111.496 319.121 110.594 317.902 109.562C316.684 108.508 315.723 107.301 315.02 105.941C314.316 104.559 313.965 102.965 313.965 101.16C313.965 99.0273 314.34 97.1875 315.09 95.6406C315.84 94.0938 316.848 92.7812 318.113 91.7031C319.402 90.6016 320.879 89.7109 322.543 89.0312C324.23 88.3516 326 87.8242 327.852 87.4492C329.703 87.0742 331.578 86.8164 333.477 86.6758C335.375 86.5352 337.18 86.4648 338.891 86.4648C340.766 86.4648 342.688 86.5586 344.656 86.7461C346.648 86.9336 348.605 87.2031 350.527 87.5547C352.449 87.8828 354.301 88.2695 356.082 88.7148C357.887 89.1602 359.551 89.6289 361.074 90.1211V101.301ZM436.941 136H421.754L397.32 87.6953H411.875L429.453 124.047L446.996 87.6953H461.551L436.941 136ZM522.652 133.609C518.691 134.922 514.73 135.859 510.77 136.422C506.832 137.008 502.801 137.301 498.676 137.301C493.402 137.301 488.703 136.738 484.578 135.613C480.477 134.465 477.02 132.812 474.207 130.656C471.395 128.5 469.25 125.863 467.773 122.746C466.297 119.629 465.559 116.102 465.559 112.164C465.559 108.508 466.297 105.121 467.773 102.004C469.273 98.8633 471.383 96.1445 474.102 93.8477C476.844 91.5273 480.148 89.7227 484.016 88.4336C487.883 87.1211 492.195 86.4648 496.953 86.4648C501.336 86.4648 505.344 87.0625 508.977 88.2578C512.633 89.4297 515.762 91.1758 518.363 93.4961C520.988 95.8164 523.016 98.6758 524.445 102.074C525.898 105.473 526.625 109.387 526.625 113.816V117.051H479.023C479.445 118.574 480.137 119.969 481.098 121.234C482.082 122.5 483.406 123.578 485.07 124.469C486.734 125.359 488.773 126.051 491.188 126.543C493.625 127.035 496.531 127.281 499.906 127.281C502.297 127.281 504.641 127.141 506.938 126.859C509.234 126.555 511.379 126.168 513.371 125.699C515.363 125.207 517.156 124.668 518.75 124.082C520.367 123.496 521.668 122.91 522.652 122.324V133.609ZM513.652 107.488C513.535 106.293 513.172 105.062 512.562 103.797C511.977 102.508 511.039 101.348 509.75 100.316C508.461 99.2852 506.773 98.4414 504.688 97.7852C502.602 97.1055 500 96.7656 496.883 96.7656C493.953 96.7656 491.422 97.1289 489.289 97.8555C487.156 98.582 485.363 99.4844 483.91 100.562C482.48 101.641 481.367 102.801 480.57 104.043C479.773 105.285 479.258 106.434 479.023 107.488H513.652ZM555.77 135.93C551.902 135.742 548.316 135.344 545.012 134.734C541.73 134.102 538.812 133.352 536.258 132.484V121.902C538.883 123.355 541.848 124.527 545.152 125.418C548.457 126.309 551.996 126.883 555.77 127.141V115.539C554.152 115.211 552.535 114.848 550.918 114.449C549.301 114.051 547.754 113.582 546.277 113.043C544.824 112.504 543.465 111.883 542.199 111.18C540.934 110.453 539.832 109.621 538.895 108.684C537.98 107.746 537.254 106.691 536.715 105.52C536.199 104.324 535.941 102.965 535.941 101.441C535.941 99.707 536.211 98.1836 536.75 96.8711C537.312 95.5586 538.062 94.4102 539 93.4258C539.961 92.4414 541.074 91.6211 542.34 90.9648C543.629 90.2852 545.012 89.7344 546.488 89.3125C547.965 88.8672 549.488 88.5391 551.059 88.3281C552.652 88.0938 554.223 87.9297 555.77 87.8359V83.1602H565.051V87.9062C568.027 88.1172 570.957 88.4922 573.84 89.0312C576.746 89.5703 579.359 90.1797 581.68 90.8594V101.02C580.93 100.668 579.98 100.281 578.832 99.8594C577.684 99.4141 576.395 98.9805 574.965 98.5586C573.535 98.1367 571.977 97.7617 570.289 97.4336C568.625 97.082 566.879 96.8125 565.051 96.625V106.785C566.691 107.137 568.344 107.523 570.008 107.945C571.672 108.367 573.254 108.859 574.754 109.422C576.277 109.984 577.695 110.641 579.008 111.391C580.32 112.117 581.457 112.961 582.418 113.922C583.402 114.883 584.164 115.973 584.703 117.191C585.266 118.41 585.547 119.781 585.547 121.305C585.547 123.156 585.266 124.785 584.703 126.191C584.141 127.598 583.367 128.828 582.383 129.883C581.398 130.914 580.25 131.793 578.938 132.52C577.625 133.223 576.207 133.809 574.684 134.277C573.16 134.723 571.578 135.074 569.938 135.332C568.297 135.566 566.668 135.742 565.051 135.859V140.535H555.77V135.93ZM573.383 122.184C573.383 121.574 573.172 121.035 572.75 120.566C572.328 120.074 571.742 119.652 570.992 119.301C570.266 118.926 569.387 118.586 568.355 118.281C567.348 117.977 566.246 117.695 565.051 117.438V127.07C566.645 126.906 567.969 126.66 569.023 126.332C570.102 125.98 570.957 125.582 571.59 125.137C572.246 124.691 572.703 124.223 572.961 123.73C573.242 123.215 573.383 122.699 573.383 122.184ZM548.035 100.422C548.035 100.984 548.223 101.488 548.598 101.934C548.973 102.355 549.5 102.742 550.18 103.094C550.883 103.445 551.703 103.773 552.641 104.078C553.602 104.359 554.645 104.629 555.77 104.887V96.625C554.105 96.7422 552.77 96.9414 551.762 97.2227C550.754 97.4805 549.969 97.7852 549.406 98.1367C548.867 98.4648 548.504 98.8281 548.316 99.2266C548.129 99.625 548.035 100.023 548.035 100.422ZM625.238 98.207V136H612.195V98.207H591.699V87.6953H645.77V98.207H625.238Z" fill="#3E80DE"/>
</svg>
